# xmcd
# Track frame offsets:
# 150
# 17438
# 34983
# 51221
# 64264
# 82873
# 95785
# 108669
# 122740
# 140914
# 153324
#
# Disc length: 2239 seconds
# Revision: 0
# Processed by: cddbd v1.5.2PL0 Copyright (c) Steve Scherf et al.
# Submitted via: VisiTrax 2.10.3.257 - For more info visit www.synapsa.com
#
DISCID=9608bd0b
DTITLE=Maria Muldaur - Maria Muldaur
DYEAR=1900
DGENRE=
TTITLE0=Any Old Time
TTITLE1=Midnight At The Oasis
TTITLE2=My Tennesse Mountain Home
TTITLE3=I Never Did Sing You A Love Song
TTITLE4=The Work Song
TTITLE5=Don't You Make Me High (Don't You Feel My Leg)
TTITLE6=Walkin' One And Only
TTITLE7=Long Hard Climb
TTITLE8=Three Dollar Bill
TTITLE9=Vaudeville Man
TTITLE10=Mad Mad Me
EXTD=
EXTT0=
EXTT1=
EXTT2=
EXTT3=
EXTT4=
EXTT5=
EXTT6=
EXTT7=
EXTT8=
EXTT9=
EXTT10=
PLAYORDER=
